<svg width="228" height="255" viewBox="0 0 228 255" fill="none" xmlns="http://www.w3.org/2000/svg">
<path d="M1.9726 63.094C2.10816 61.5487 2.59617 60.0168 3.43664 58.4986C4.27711 56.9803 5.23959 55.7603 6.32407 54.8385C8.65569 56.3025 11.2584 57.5768 14.1323 58.6612C17.0333 59.7186 19.9072 60.2473 22.7539 60.2473C25.5464 60.2473 27.6476 59.6102 29.0574 58.3359C30.4673 57.0616 31.1722 55.5434 31.1722 53.7811C31.1722 52.3984 30.7113 51.0699 29.7895 49.7956C28.8948 48.4943 27.2816 47.3556 24.95 46.3795L15.149 42.3127C11.76 40.8758 9.00815 39.0051 6.89342 36.7006C4.77869 34.396 3.72132 31.4002 3.72132 27.7129C3.72132 24.5408 4.54823 21.7212 6.20206 19.254C7.85589 16.7868 10.1197 14.8483 12.9936 13.4385C15.8946 12.0287 19.1751 11.3238 22.8352 11.3238C26.4411 11.3238 29.8437 11.7982 33.0429 12.7471C36.2421 13.6961 38.8991 14.6992 41.0138 15.7566C40.9325 17.3291 40.5529 18.8609 39.8751 20.352C39.2244 21.8432 38.3433 23.0768 37.2317 24.0528C35.1441 23.0497 32.7718 22.155 30.1148 21.3687C27.4578 20.5825 25.0584 20.1894 22.9166 20.1894C20.2596 20.1894 18.2533 20.8265 16.8977 22.1008C15.5692 23.3479 14.905 24.7577 14.905 26.3302C14.905 27.7401 15.3795 28.933 16.3284 29.909C17.2773 30.8579 18.7007 31.7391 20.5985 32.5524L30.4808 36.6192C32.948 37.6495 35.0898 38.9237 36.9063 40.442C38.75 41.9603 40.1733 43.7226 41.1765 45.7288C42.2067 47.708 42.7219 49.877 42.7219 52.2357C42.7219 55.4349 41.9492 58.3088 40.4038 60.8573C38.8855 63.4058 36.5946 65.4257 33.5309 66.9168C30.4673 68.408 26.6309 69.1536 22.0219 69.1536C18.6871 69.1536 15.2168 68.6249 11.6109 67.5675C8.03212 66.5101 4.81935 65.019 1.9726 63.094Z" fill="white"/>
<path d="M77.0008 47.2058C77.0008 50.5405 76.0004 53.127 73.9996 54.9652C72.015 56.7871 69.1682 57.6981 65.4593 57.6981C61.7666 57.6981 58.9199 56.7871 56.919 54.9652C54.9182 53.127 53.9177 50.5405 53.9177 47.2058V30.296L54.2105 30.0032H56.5774C57.8463 30.0032 58.7979 30.3204 59.4323 30.9549C60.0667 31.5893 60.3839 32.6466 60.3839 34.127V47.2058C60.3839 48.8975 60.7825 50.2152 61.5796 51.1587C62.3929 52.1022 63.6862 52.5739 65.4593 52.5739C67.2649 52.5739 68.5582 52.1022 69.339 51.1587C70.1198 50.2152 70.5102 48.8975 70.5102 47.2058V30.2472C71.0471 30.1496 71.6001 30.0846 72.1695 30.052C72.7388 30.0195 73.2431 30.0032 73.6823 30.0032C74.089 30.0032 74.6177 30.0276 75.2684 30.0764C75.9191 30.109 76.4966 30.174 77.0008 30.2716V47.2058ZM106.056 39.1779C106.056 41.2113 105.601 42.9031 104.69 44.2533C103.779 45.6034 102.518 46.612 100.907 47.279C99.3133 47.9296 97.4914 48.255 95.4417 48.255C95.1164 48.255 94.6202 48.255 93.9533 48.255C93.3026 48.255 92.6275 48.255 91.928 48.255C91.2285 48.255 90.6348 48.255 90.1468 48.255C89.675 48.255 89.4391 48.255 89.4391 48.255V43.4968C89.8621 43.4643 90.4477 43.448 91.196 43.448C91.9605 43.4318 92.7007 43.4155 93.4165 43.3992C94.1322 43.383 94.6528 43.3748 94.9781 43.3748C96.2144 43.3748 97.1498 43.1552 97.7842 42.716C98.4349 42.2605 98.866 41.7075 99.0774 41.0568C99.3052 40.3898 99.419 39.7473 99.419 39.1291C99.419 38.5435 99.3052 37.9253 99.0774 37.2746C98.866 36.624 98.4349 36.0709 97.7842 35.6154C97.1498 35.1599 96.2144 34.9322 94.9781 34.9322C94.4901 34.9322 94.0427 34.9322 93.6361 34.9322C93.2294 34.9159 92.7088 34.8996 92.0744 34.8834V57.0149C91.5376 57.1125 90.9845 57.1775 90.4152 57.2101C89.8458 57.2426 89.3415 57.2589 88.9023 57.2589C88.4956 57.2589 87.967 57.2426 87.3163 57.2101C86.6818 57.1775 86.1125 57.1125 85.6082 57.0149V30.4912L85.8522 30.2228C87.2512 30.1903 88.7884 30.1578 90.464 30.1252C92.1557 30.0764 93.815 30.052 95.4417 30.052C97.4914 30.052 99.3133 30.3692 100.907 31.0037C102.518 31.6381 103.779 32.6304 104.69 33.9805C105.601 35.3307 106.056 37.0632 106.056 39.1779ZM133.017 39.1779C133.017 41.2113 132.561 42.9031 131.651 44.2533C130.74 45.6034 129.479 46.612 127.868 47.279C126.274 47.9296 124.452 48.255 122.403 48.255C122.077 48.255 121.581 48.255 120.914 48.255C120.264 48.255 119.588 48.255 118.889 48.255C118.189 48.255 117.596 48.255 117.108 48.255C116.636 48.255 116.4 48.255 116.4 48.255V43.4968C116.823 43.4643 117.409 43.448 118.157 43.448C118.921 43.4318 119.662 43.4155 120.377 43.3992C121.093 43.383 121.614 43.3748 121.939 43.3748C123.175 43.3748 124.111 43.1552 124.745 42.716C125.396 42.2605 125.827 41.7075 126.038 41.0568C126.266 40.3898 126.38 39.7473 126.38 39.1291C126.38 38.5435 126.266 37.9253 126.038 37.2746C125.827 36.624 125.396 36.0709 124.745 35.6154C124.111 35.1599 123.175 34.9322 121.939 34.9322C121.451 34.9322 121.004 34.9322 120.597 34.9322C120.19 34.9159 119.67 34.8996 119.035 34.8834V57.0149C118.499 57.1125 117.945 57.1775 117.376 57.2101C116.807 57.2426 116.302 57.2589 115.863 57.2589C115.457 57.2589 114.928 57.2426 114.277 57.2101C113.643 57.1775 113.073 57.1125 112.569 57.0149V30.4912L112.813 30.2228C114.212 30.1903 115.749 30.1578 117.425 30.1252C119.117 30.0764 120.776 30.052 122.403 30.052C124.452 30.052 126.274 30.3692 127.868 31.0037C129.479 31.6381 130.74 32.6304 131.651 33.9805C132.561 35.3307 133.017 37.0632 133.017 39.1779ZM145.947 57.1125H143.19C142.035 57.1125 141.124 56.779 140.457 56.112C139.79 55.4451 139.457 54.5341 139.457 53.3791V30.3204L139.725 30.052H142.214C143.483 30.052 144.418 30.3692 145.02 31.0037C145.638 31.6218 145.947 32.6466 145.947 34.0781V57.1125ZM157.757 51.7199C157.692 53.7208 157.351 55.1197 156.733 55.9168C156.114 56.7139 155.025 57.1125 153.463 57.1125H143.19L140.555 52.7203C142.182 52.3787 143.873 52.1266 145.63 51.9639C147.387 51.8012 148.924 51.7199 150.242 51.7199H157.757ZM164.278 30.2472C164.782 30.1496 165.351 30.0846 165.986 30.052C166.637 30.0195 167.165 30.0032 167.572 30.0032C168.011 30.0032 168.515 30.0195 169.085 30.052C169.67 30.0846 170.232 30.1496 170.768 30.2472V57.0149C170.232 57.1125 169.67 57.1775 169.085 57.2101C168.515 57.2426 168.011 57.2589 167.572 57.2589C167.165 57.2589 166.637 57.2426 165.986 57.2101C165.351 57.1775 164.782 57.1125 164.278 57.0149V30.2472ZM179.965 30.5156L180.209 30.2472H186.285V35.4202C186.285 35.8757 186.293 36.2986 186.309 36.689C186.325 37.0632 186.333 37.5105 186.333 38.0311V49.3286C186.333 49.8329 186.325 50.2803 186.309 50.6707C186.293 51.0448 186.285 51.4596 186.285 51.9151V57.0881H183.698C182.543 57.0881 181.632 56.7546 180.965 56.0876C180.298 55.4044 179.965 54.4935 179.965 53.3547V30.5156ZM196.191 40.9348C196.321 41.3252 196.411 41.7644 196.46 42.2524C196.509 42.7242 196.533 43.1227 196.533 43.448C196.533 43.8222 196.509 44.2533 196.46 44.7413C196.411 45.213 196.321 45.6441 196.191 46.0345H189.261C188.904 46.0345 188.399 46.0345 187.749 46.0345C187.098 46.0345 186.439 46.0345 185.772 46.0345C185.105 46.0183 184.544 46.002 184.089 45.9857V41.0324C184.544 41.0161 185.105 40.9998 185.772 40.9836C186.439 40.9673 187.098 40.9592 187.749 40.9592C188.399 40.9429 188.904 40.9348 189.261 40.9348H196.191ZM198.753 30.2472C198.835 30.719 198.884 31.1663 198.9 31.5893C198.916 32.0122 198.924 32.4108 198.924 32.7849C198.924 33.1591 198.884 33.582 198.802 34.0537C198.737 34.5255 198.615 35.0054 198.436 35.4934H189.261C188.904 35.4934 188.399 35.4934 187.749 35.4934C187.098 35.4771 186.439 35.4609 185.772 35.4446C185.105 35.4283 184.544 35.4121 184.089 35.3958V30.2472H198.753ZM199.583 51.8175C199.583 53.7858 199.274 55.1604 198.656 55.9412C198.054 56.7058 197.021 57.0881 195.557 57.0881H184.162V52.0615C184.926 52.029 185.569 51.9964 186.089 51.9639C186.626 51.9151 187.147 51.8826 187.651 51.8663C188.155 51.8338 188.757 51.8175 189.457 51.8175H199.583ZM204.123 54.9164C204.123 54.3796 204.229 53.794 204.44 53.1595C204.652 52.5251 204.936 51.9314 205.294 51.3783C205.668 50.8252 206.075 50.4104 206.514 50.1338C207.669 50.7845 208.971 51.362 210.418 51.8663C211.883 52.3706 213.387 52.6146 214.933 52.5983C215.681 52.5983 216.356 52.4845 216.958 52.2567C217.56 52.029 218.04 51.7118 218.398 51.3051C218.755 50.8821 218.934 50.3779 218.934 49.7922C218.934 49.1741 218.698 48.621 218.227 48.133C217.755 47.645 217.015 47.222 216.006 46.8641L211.687 45.2049C210.418 44.7657 209.264 44.2207 208.222 43.57C207.198 42.9031 206.384 42.0979 205.782 41.1544C205.18 40.2109 204.88 39.0966 204.88 37.8115C204.88 36.2335 205.294 34.8264 206.124 33.5901C206.954 32.3376 208.133 31.3615 209.662 30.662C211.207 29.9463 213.046 29.5803 215.177 29.564C216.966 29.564 218.739 29.7755 220.496 30.1984C222.269 30.6214 223.758 31.1013 224.961 31.6381C224.961 32.5653 224.766 33.4844 224.376 34.3954C223.985 35.2901 223.448 36.0058 222.765 36.5426C221.578 36.0058 220.285 35.5666 218.886 35.225C217.503 34.8671 216.234 34.6882 215.079 34.6882C214.005 34.7044 213.168 34.9484 212.566 35.4202C211.964 35.8919 211.663 36.4857 211.663 37.2014C211.663 37.8196 211.915 38.2913 212.419 38.6167C212.94 38.942 213.631 39.2592 214.493 39.5683L218.739 41.1788C220.854 41.9433 222.57 43.0007 223.888 44.3509C225.205 45.701 225.864 47.3766 225.864 49.3774C225.864 51.1017 225.401 52.5902 224.473 53.8428C223.546 55.0791 222.269 56.0307 220.642 56.6977C219.016 57.3483 217.137 57.6818 215.006 57.6981C212.566 57.7144 210.402 57.4215 208.515 56.8197C206.628 56.2178 205.164 55.5834 204.123 54.9164Z" fill="white"/>
<rect x="65.2168" y="137.591" width="97.2793" height="9.38324" rx="3.06391" fill="#81BF7C"/>
<rect x="65.2168" y="162.868" width="97.2793" height="9.38324" rx="3.06391" fill="#81BF7C"/>
<rect x="64.8337" y="113.846" width="28.5327" height="10.3407" rx="3.06391" fill="#81BF7C"/>
<rect x="110.601" y="113.846" width="51.8951" height="10.3407" rx="3.06391" fill="#81BF7C"/>
<path fill-rule="evenodd" clip-rule="evenodd" d="M171.3 99.0756H55.9249C54.2327 99.0756 52.861 100.447 52.861 102.14V187.355C52.861 189.047 54.2327 190.419 55.9249 190.419H107.628C109.321 190.419 110.692 191.79 110.692 193.483V196.738C110.692 198.43 109.321 199.802 107.628 199.802H98.3409C96.7017 199.802 95.3728 201.131 95.3728 202.77C95.3728 204.409 96.7017 205.738 98.3409 205.738H128.406C130.045 205.738 131.374 204.409 131.374 202.77C131.374 201.131 130.045 199.802 128.406 199.802H120.746C119.054 199.802 117.682 198.43 117.682 196.738V193.483C117.682 191.79 119.054 190.419 120.746 190.419H171.3C172.993 190.419 174.364 189.047 174.364 187.355V102.14C174.364 100.447 172.993 99.0756 171.3 99.0756ZM61.3825 185.535C59.6903 185.535 58.3186 184.164 58.3186 182.472V107.597C58.3186 105.905 59.6903 104.533 61.3825 104.533H165.843C167.535 104.533 168.907 105.905 168.907 107.597V182.472C168.907 184.164 167.535 185.535 165.843 185.535H61.3825Z" fill="#0F2A1D"/>
<path d="M55.9249 99.0756H171.3M55.9249 99.0756C54.2327 99.0756 52.861 100.447 52.861 102.14M55.9249 99.0756V99.0756C54.2327 99.0756 52.861 100.447 52.861 102.14V102.14M171.3 99.0756C172.993 99.0756 174.364 100.447 174.364 102.14M171.3 99.0756V99.0756C172.993 99.0756 174.364 100.447 174.364 102.14V102.14M174.364 102.14V187.355M174.364 187.355C174.364 189.047 172.993 190.419 171.3 190.419M174.364 187.355V187.355C174.364 189.047 172.993 190.419 171.3 190.419V190.419M171.3 190.419H120.746M120.746 190.419C119.054 190.419 117.682 191.79 117.682 193.483M120.746 190.419V190.419C119.054 190.419 117.682 191.79 117.682 193.483V193.483M117.682 193.483V196.738M117.682 196.738C117.682 198.43 119.054 199.802 120.746 199.802M117.682 196.738V196.738C117.682 198.43 119.054 199.802 120.746 199.802V199.802M120.746 199.802H128.406M128.406 199.802C130.045 199.802 131.374 201.131 131.374 202.77M128.406 199.802V199.802C130.045 199.802 131.374 201.131 131.374 202.77V202.77M131.374 202.77C131.374 204.409 130.045 205.738 128.406 205.738M131.374 202.77V202.77C131.374 204.409 130.045 205.738 128.406 205.738V205.738M128.406 205.738H98.3409M98.3409 205.738C96.7017 205.738 95.3728 204.409 95.3728 202.77M98.3409 205.738V205.738C96.7017 205.738 95.3728 204.409 95.3728 202.77V202.77M95.3728 202.77C95.3728 201.131 96.7017 199.802 98.3409 199.802M95.3728 202.77V202.77C95.3728 201.131 96.7017 199.802 98.3409 199.802V199.802M98.3409 199.802H107.628M107.628 199.802C109.321 199.802 110.692 198.43 110.692 196.738M107.628 199.802V199.802C109.321 199.802 110.692 198.43 110.692 196.738V196.738M110.692 196.738V193.483M110.692 193.483C110.692 191.79 109.321 190.419 107.628 190.419M110.692 193.483V193.483C110.692 191.79 109.321 190.419 107.628 190.419V190.419M107.628 190.419H55.9249M55.9249 190.419C54.2327 190.419 52.861 189.047 52.861 187.355M55.9249 190.419V190.419C54.2327 190.419 52.861 189.047 52.861 187.355V187.355M52.861 187.355V102.14M168.907 107.597V182.472C168.907 184.164 167.535 185.535 165.843 185.535H61.3825C59.6903 185.535 58.3186 184.164 58.3186 182.472V107.597C58.3186 105.905 59.6903 104.533 61.3825 104.533H165.843C167.535 104.533 168.907 105.905 168.907 107.597Z" stroke="white" stroke-width="0.765979"/>
<path d="M3.38969 232.403C3.66036 232.291 3.99169 232.203 4.38369 232.137C4.77569 232.072 5.13502 232.039 5.46169 232.039C6.08702 232.039 6.53036 232.193 6.79169 232.501C7.05302 232.8 7.25369 233.327 7.39369 234.083L8.59769 240.369C8.67236 240.733 8.74702 241.149 8.82169 241.615C8.90569 242.082 8.98502 242.549 9.05969 243.015C9.13436 243.482 9.19969 243.911 9.25569 244.303C9.27436 244.434 9.29769 244.518 9.32569 244.555C9.35369 244.583 9.40969 244.597 9.49369 244.597L11.7617 232.431C12.107 232.375 12.485 232.338 12.8957 232.319C13.3157 232.291 13.7077 232.277 14.0717 232.277C14.4357 232.277 14.823 232.291 15.2337 232.319C15.6444 232.338 16.0224 232.375 16.3677 232.431L18.4537 244.303C18.491 244.499 18.575 244.597 18.7057 244.597C18.7617 244.159 18.827 243.687 18.9017 243.183C18.9764 242.67 19.0557 242.166 19.1397 241.671C19.2237 241.177 19.3077 240.733 19.3917 240.341L21.0017 232.235C21.291 232.179 21.571 232.147 21.8417 232.137C22.1124 232.119 22.3737 232.109 22.6257 232.109C22.9337 232.109 23.2464 232.128 23.5637 232.165C23.881 232.203 24.1657 232.268 24.4177 232.361L24.5997 232.557L21.2117 247.565C20.8384 247.64 20.3437 247.691 19.7277 247.719C19.1117 247.757 18.5657 247.775 18.0897 247.775C17.5577 247.775 17.0817 247.677 16.6617 247.481C16.251 247.285 15.985 246.833 15.8637 246.123L14.9257 241.153C14.7857 240.285 14.6364 239.347 14.4777 238.339C14.3284 237.322 14.207 236.463 14.1137 235.763H13.9317C13.8197 236.463 13.6844 237.313 13.5257 238.311C13.367 239.31 13.2037 240.257 13.0357 241.153L11.7757 247.579C11.3837 247.635 10.8937 247.677 10.3057 247.705C9.71769 247.733 9.17169 247.747 8.66769 247.747C8.09836 247.747 7.60369 247.654 7.18369 247.467C6.76369 247.281 6.48369 246.828 6.34369 246.109L3.38969 232.403ZM28.1922 232.375L28.3322 232.221H31.8182V235.189C31.8182 235.451 31.8229 235.693 31.8322 235.917C31.8416 236.132 31.8462 236.389 31.8462 236.687V243.169C31.8462 243.459 31.8416 243.715 31.8322 243.939C31.8229 244.154 31.8182 244.392 31.8182 244.653V247.621H30.3342C29.6716 247.621 29.1489 247.43 28.7662 247.047C28.3836 246.655 28.1922 246.133 28.1922 245.479V232.375ZM37.5022 238.353C37.5769 238.577 37.6282 238.829 37.6562 239.109C37.6842 239.38 37.6982 239.609 37.6982 239.795C37.6982 240.01 37.6842 240.257 37.6562 240.537C37.6282 240.808 37.5769 241.055 37.5022 241.279H33.5262C33.3209 241.279 33.0316 241.279 32.6582 241.279C32.2849 241.279 31.9069 241.279 31.5242 241.279C31.1416 241.27 30.8196 241.261 30.5582 241.251V238.409C30.8196 238.4 31.1416 238.391 31.5242 238.381C31.9069 238.372 32.2849 238.367 32.6582 238.367C33.0316 238.358 33.3209 238.353 33.5262 238.353H37.5022ZM38.9722 232.221C39.0189 232.492 39.0469 232.749 39.0562 232.991C39.0656 233.234 39.0702 233.463 39.0702 233.677C39.0702 233.892 39.0469 234.135 39.0002 234.405C38.9629 234.676 38.8929 234.951 38.7902 235.231H33.5262C33.3209 235.231 33.0316 235.231 32.6582 235.231C32.2849 235.222 31.9069 235.213 31.5242 235.203C31.1416 235.194 30.8196 235.185 30.5582 235.175V232.221H38.9722ZM39.4482 244.597C39.4482 245.727 39.2709 246.515 38.9162 246.963C38.5709 247.402 37.9782 247.621 37.1382 247.621H30.6002V244.737C31.0389 244.719 31.4076 244.7 31.7062 244.681C32.0142 244.653 32.3129 244.635 32.6022 244.625C32.8916 244.607 33.2369 244.597 33.6382 244.597H39.4482ZM43.7191 232.207C44.2418 232.189 44.8251 232.175 45.4691 232.165C46.1131 232.147 46.7664 232.133 47.4291 232.123C48.1011 232.114 48.7311 232.109 49.3191 232.109C50.5044 232.109 51.5311 232.249 52.3991 232.529C53.2764 232.809 53.9484 233.248 54.4151 233.845C54.8911 234.443 55.1291 235.217 55.1291 236.169C55.1291 236.72 54.9984 237.243 54.7371 237.737C54.4758 238.232 54.1071 238.643 53.6311 238.969C53.1551 239.287 52.6044 239.455 51.9791 239.473V239.137C52.6791 239.137 53.3278 239.324 53.9251 239.697C54.5318 240.071 55.0218 240.565 55.3951 241.181C55.7684 241.788 55.9551 242.446 55.9551 243.155C55.9551 244.219 55.7031 245.083 55.1991 245.745C54.6951 246.408 53.9718 246.898 53.0291 247.215C52.0958 247.523 50.9758 247.677 49.6691 247.677C48.6798 247.677 47.7044 247.668 46.7431 247.649C45.7911 247.64 44.7831 247.621 43.7191 247.593L43.5791 247.453V232.361L43.7191 232.207ZM47.1771 245.087C47.6158 245.078 48.0451 245.073 48.4651 245.073C48.8851 245.064 49.2818 245.059 49.6551 245.059C50.3458 245.059 50.8731 244.952 51.2371 244.737C51.6104 244.513 51.8624 244.243 51.9931 243.925C52.1331 243.599 52.2031 243.286 52.2031 242.987C52.2031 242.661 52.1191 242.334 51.9511 242.007C51.7831 241.671 51.4984 241.391 51.0971 241.167C50.6958 240.943 50.1358 240.831 49.4171 240.831H45.6651V238.213H49.1511C49.7671 238.213 50.2431 238.129 50.5791 237.961C50.9244 237.784 51.1624 237.56 51.2931 237.289C51.4238 237.019 51.4891 236.739 51.4891 236.449C51.4891 236.169 51.4238 235.894 51.2931 235.623C51.1624 235.353 50.9291 235.133 50.5931 234.965C50.2571 234.788 49.7904 234.699 49.1931 234.699C48.9504 234.699 48.6331 234.699 48.2411 234.699C47.8584 234.699 47.5038 234.69 47.1771 234.671V245.087ZM70.5674 232.221C70.9407 232.165 71.3234 232.128 71.7154 232.109C72.1167 232.091 72.4714 232.081 72.7794 232.081C73.0687 232.081 73.3907 232.091 73.7454 232.109C74.1 232.128 74.4687 232.165 74.8514 232.221L80.2554 247.397C79.9847 247.537 79.6394 247.64 79.2194 247.705C78.8087 247.771 78.4587 247.803 78.1694 247.803C77.712 247.803 77.292 247.715 76.9094 247.537C76.536 247.36 76.2374 246.912 76.0134 246.193L73.8854 239.823C73.7547 239.375 73.61 238.876 73.4514 238.325C73.302 237.775 73.1527 237.224 73.0034 236.673C72.8634 236.123 72.7327 235.614 72.6114 235.147H72.4574C72.2707 235.81 72.0607 236.557 71.8274 237.387C71.6034 238.218 71.3934 238.941 71.1974 239.557L68.4954 247.593C68.262 247.64 68.01 247.677 67.7394 247.705C67.4687 247.733 67.1934 247.747 66.9134 247.747C66.596 247.747 66.2787 247.724 65.9614 247.677C65.644 247.631 65.3874 247.565 65.1914 247.481L65.0514 247.285L70.5674 232.221ZM70.6794 244.541C70.5674 244.541 70.4227 244.541 70.2454 244.541C70.0774 244.532 69.9047 244.527 69.7274 244.527C69.55 244.518 69.4054 244.513 69.2934 244.513H67.6694L68.8314 241.601H70.2454C70.348 241.601 70.4787 241.601 70.6374 241.601C70.8054 241.592 70.9687 241.587 71.1274 241.587C71.2954 241.578 71.4307 241.573 71.5334 241.573H73.5774C73.6894 241.573 73.8154 241.578 73.9554 241.587C74.1047 241.587 74.2494 241.592 74.3894 241.601C74.5387 241.601 74.6694 241.601 74.7814 241.601H76.2794L77.3294 244.513H75.6494C75.5374 244.513 75.3974 244.518 75.2294 244.527C75.0614 244.527 74.8934 244.532 74.7254 244.541C74.5574 244.541 74.422 244.541 74.3194 244.541H70.6794ZM95.2647 237.345C95.2647 238.512 95.0034 239.483 94.4807 240.257C93.958 241.032 93.2347 241.611 92.3107 241.993C91.396 242.367 90.3507 242.553 89.1747 242.553C88.988 242.553 88.7034 242.553 88.3207 242.553C87.9474 242.553 87.56 242.553 87.1587 242.553C86.7574 242.553 86.4167 242.553 86.1367 242.553C85.866 242.553 85.7307 242.553 85.7307 242.553V239.823C85.9734 239.805 86.3094 239.795 86.7387 239.795C87.1774 239.786 87.602 239.777 88.0127 239.767C88.4234 239.758 88.722 239.753 88.9087 239.753C89.618 239.753 90.1547 239.627 90.5187 239.375C90.892 239.114 91.1394 238.797 91.2607 238.423C91.3914 238.041 91.4567 237.672 91.4567 237.317C91.4567 236.981 91.3914 236.627 91.2607 236.253C91.1394 235.88 90.892 235.563 90.5187 235.301C90.1547 235.04 89.618 234.909 88.9087 234.909C88.6287 234.909 88.372 234.909 88.1387 234.909C87.9054 234.9 87.6067 234.891 87.2427 234.881V247.579C86.9347 247.635 86.6174 247.673 86.2907 247.691C85.964 247.71 85.6747 247.719 85.4227 247.719C85.1894 247.719 84.886 247.71 84.5127 247.691C84.1487 247.673 83.822 247.635 83.5327 247.579V232.361L83.6727 232.207C84.4754 232.189 85.3574 232.17 86.3187 232.151C87.2894 232.123 88.2414 232.109 89.1747 232.109C90.3507 232.109 91.396 232.291 92.3107 232.655C93.2347 233.019 93.958 233.589 94.4807 234.363C95.0034 235.138 95.2647 236.132 95.2647 237.345ZM110.734 237.345C110.734 238.512 110.472 239.483 109.95 240.257C109.427 241.032 108.704 241.611 107.78 241.993C106.865 242.367 105.82 242.553 104.644 242.553C104.457 242.553 104.172 242.553 103.79 242.553C103.416 242.553 103.029 242.553 102.628 242.553C102.226 242.553 101.886 242.553 101.606 242.553C101.335 242.553 101.2 242.553 101.2 242.553V239.823C101.442 239.805 101.778 239.795 102.208 239.795C102.646 239.786 103.071 239.777 103.482 239.767C103.892 239.758 104.191 239.753 104.378 239.753C105.087 239.753 105.624 239.627 105.988 239.375C106.361 239.114 106.608 238.797 106.73 238.423C106.86 238.041 106.926 237.672 106.926 237.317C106.926 236.981 106.86 236.627 106.73 236.253C106.608 235.88 106.361 235.563 105.988 235.301C105.624 235.04 105.087 234.909 104.378 234.909C104.098 234.909 103.841 234.909 103.608 234.909C103.374 234.9 103.076 234.891 102.712 234.881V247.579C102.404 247.635 102.086 247.673 101.76 247.691C101.433 247.71 101.144 247.719 100.892 247.719C100.658 247.719 100.355 247.71 99.9816 247.691C99.6176 247.673 99.2909 247.635 99.0016 247.579V232.361L99.1416 232.207C99.9443 232.189 100.826 232.17 101.788 232.151C102.758 232.123 103.71 232.109 104.644 232.109C105.82 232.109 106.865 232.291 107.78 232.655C108.704 233.019 109.427 233.589 109.95 234.363C110.472 235.138 110.734 236.132 110.734 237.345ZM118.152 247.635H116.57C115.908 247.635 115.385 247.444 115.002 247.061C114.62 246.679 114.428 246.156 114.428 245.493V232.263L114.582 232.109H116.01C116.738 232.109 117.275 232.291 117.62 232.655C117.975 233.01 118.152 233.598 118.152 234.419V247.635ZM124.928 244.541C124.891 245.689 124.695 246.492 124.34 246.949C123.986 247.407 123.36 247.635 122.464 247.635H116.57L115.058 245.115C115.992 244.919 116.962 244.775 117.97 244.681C118.978 244.588 119.86 244.541 120.616 244.541H124.928ZM128.67 232.221C128.959 232.165 129.286 232.128 129.65 232.109C130.023 232.091 130.326 232.081 130.56 232.081C130.812 232.081 131.101 232.091 131.428 232.109C131.764 232.128 132.086 232.165 132.394 232.221V247.579C132.086 247.635 131.764 247.673 131.428 247.691C131.101 247.71 130.812 247.719 130.56 247.719C130.326 247.719 130.023 247.71 129.65 247.691C129.286 247.673 128.959 247.635 128.67 247.579V232.221ZM146.406 238.731C146.406 237.985 146.327 237.313 146.168 236.715C146.009 236.118 145.725 235.642 145.314 235.287C144.903 234.933 144.325 234.755 143.578 234.755C142.449 234.755 141.618 235.203 141.086 236.099C140.563 236.986 140.302 238.279 140.302 239.977C140.302 241.191 140.461 242.157 140.778 242.875C141.105 243.585 141.534 244.098 142.066 244.415C142.607 244.723 143.2 244.877 143.844 244.877C144.553 244.877 145.263 244.728 145.972 244.429C146.691 244.131 147.363 243.748 147.988 243.281C148.24 243.412 148.487 243.617 148.73 243.897C148.973 244.168 149.178 244.462 149.346 244.779C149.523 245.087 149.64 245.372 149.696 245.633C148.949 246.287 148.035 246.842 146.952 247.299C145.879 247.747 144.661 247.971 143.298 247.971C142.01 247.971 140.927 247.743 140.05 247.285C139.173 246.819 138.473 246.198 137.95 245.423C137.427 244.649 137.049 243.79 136.816 242.847C136.592 241.895 136.48 240.934 136.48 239.963C136.48 238.059 136.816 236.51 137.488 235.315C138.169 234.121 139.056 233.243 140.148 232.683C141.249 232.114 142.43 231.829 143.69 231.829C145.118 231.829 146.289 232.081 147.204 232.585C148.119 233.089 148.795 233.724 149.234 234.489C149.682 235.255 149.906 236.029 149.906 236.813C149.906 237.485 149.729 237.994 149.374 238.339C149.019 238.685 148.459 238.857 147.694 238.857C147.498 238.857 147.288 238.843 147.064 238.815C146.849 238.787 146.63 238.759 146.406 238.731ZM157.42 232.221C157.793 232.165 158.176 232.128 158.568 232.109C158.969 232.091 159.324 232.081 159.632 232.081C159.921 232.081 160.243 232.091 160.598 232.109C160.953 232.128 161.321 232.165 161.704 232.221L167.108 247.397C166.837 247.537 166.492 247.64 166.072 247.705C165.661 247.771 165.311 247.803 165.022 247.803C164.565 247.803 164.145 247.715 163.762 247.537C163.389 247.36 163.09 246.912 162.866 246.193L160.738 239.823C160.607 239.375 160.463 238.876 160.304 238.325C160.155 237.775 160.005 237.224 159.856 236.673C159.716 236.123 159.585 235.614 159.464 235.147H159.31C159.123 235.81 158.913 236.557 158.68 237.387C158.456 238.218 158.246 238.941 158.05 239.557L155.348 247.593C155.115 247.64 154.863 247.677 154.592 247.705C154.321 247.733 154.046 247.747 153.766 247.747C153.449 247.747 153.131 247.724 152.814 247.677C152.497 247.631 152.24 247.565 152.044 247.481L151.904 247.285L157.42 232.221ZM157.532 244.541C157.42 244.541 157.275 244.541 157.098 244.541C156.93 244.532 156.757 244.527 156.58 244.527C156.403 244.518 156.258 244.513 156.146 244.513H154.522L155.684 241.601H157.098C157.201 241.601 157.331 241.601 157.49 241.601C157.658 241.592 157.821 241.587 157.98 241.587C158.148 241.578 158.283 241.573 158.386 241.573H160.43C160.542 241.573 160.668 241.578 160.808 241.587C160.957 241.587 161.102 241.592 161.242 241.601C161.391 241.601 161.522 241.601 161.634 241.601H163.132L164.182 244.513H162.502C162.39 244.513 162.25 244.518 162.082 244.527C161.914 244.527 161.746 244.532 161.578 244.541C161.41 244.541 161.275 244.541 161.172 244.541H157.532ZM167.127 235.245C167.071 234.965 167.034 234.704 167.015 234.461C166.997 234.209 166.987 233.976 166.987 233.761C166.987 233.556 166.997 233.318 167.015 233.047C167.034 232.767 167.071 232.492 167.127 232.221H179.307C179.363 232.436 179.405 232.679 179.433 232.949C179.471 233.211 179.489 233.43 179.489 233.607C179.489 234.139 179.345 234.545 179.055 234.825C178.775 235.105 178.29 235.245 177.599 235.245H176.591C176.405 235.245 176.153 235.241 175.835 235.231C175.518 235.222 175.275 235.217 175.107 235.217H171.439C171.253 235.217 170.991 235.222 170.655 235.231C170.329 235.241 170.072 235.245 169.885 235.245H167.127ZM171.411 236.911C171.411 236.613 171.416 236.337 171.425 236.085C171.435 235.824 171.439 235.535 171.439 235.217V233.761H175.107V235.217C175.107 235.535 175.112 235.824 175.121 236.085C175.131 236.337 175.135 236.613 175.135 236.911V247.579C174.902 247.626 174.599 247.659 174.225 247.677C173.852 247.705 173.535 247.719 173.273 247.719C173.021 247.719 172.713 247.705 172.349 247.677C171.985 247.659 171.673 247.626 171.411 247.579V236.911ZM182.561 232.221C182.85 232.165 183.177 232.128 183.541 232.109C183.914 232.091 184.217 232.081 184.451 232.081C184.703 232.081 184.992 232.091 185.319 232.109C185.655 232.128 185.977 232.165 186.285 232.221V247.579C185.977 247.635 185.655 247.673 185.319 247.691C184.992 247.71 184.703 247.719 184.451 247.719C184.217 247.719 183.914 247.71 183.541 247.691C183.177 247.673 182.85 247.635 182.561 247.579V232.221ZM194.193 239.921C194.193 240.5 194.235 241.097 194.319 241.713C194.413 242.329 194.585 242.903 194.837 243.435C195.089 243.958 195.449 244.383 195.915 244.709C196.382 245.036 196.998 245.199 197.763 245.199C198.519 245.199 199.131 245.036 199.597 244.709C200.073 244.383 200.433 243.958 200.675 243.435C200.927 242.903 201.095 242.329 201.179 241.713C201.273 241.097 201.319 240.5 201.319 239.921C201.319 239.333 201.273 238.731 201.179 238.115C201.095 237.49 200.927 236.911 200.675 236.379C200.433 235.847 200.073 235.418 199.597 235.091C199.131 234.765 198.519 234.601 197.763 234.601C196.998 234.601 196.382 234.765 195.915 235.091C195.449 235.418 195.089 235.847 194.837 236.379C194.585 236.911 194.413 237.49 194.319 238.115C194.235 238.731 194.193 239.333 194.193 239.921ZM190.371 239.921C190.371 238.297 190.651 236.879 191.211 235.665C191.771 234.452 192.597 233.509 193.689 232.837C194.791 232.165 196.144 231.829 197.749 231.829C199.373 231.829 200.731 232.165 201.823 232.837C202.925 233.509 203.751 234.452 204.301 235.665C204.861 236.869 205.141 238.288 205.141 239.921C205.141 241.555 204.861 242.973 204.301 244.177C203.741 245.381 202.911 246.315 201.809 246.977C200.708 247.64 199.355 247.971 197.749 247.971C196.125 247.971 194.767 247.64 193.675 246.977C192.583 246.305 191.757 245.367 191.197 244.163C190.647 242.95 190.371 241.536 190.371 239.921ZM209.163 232.291C209.452 232.226 209.812 232.175 210.241 232.137C210.67 232.1 211.006 232.081 211.249 232.081C211.52 232.081 211.87 232.091 212.299 232.109C212.738 232.119 213.102 232.156 213.391 232.221L212.593 236.379L212.383 236.449C212.42 237.103 212.453 237.821 212.481 238.605C212.518 239.38 212.546 240.103 212.565 240.775C212.584 241.438 212.593 241.937 212.593 242.273V247.579C212.285 247.635 211.986 247.673 211.697 247.691C211.417 247.71 211.151 247.719 210.899 247.719C210.675 247.719 210.4 247.71 210.073 247.691C209.756 247.673 209.452 247.635 209.163 247.579V232.291ZM214.063 239.753C213.97 239.576 213.848 239.338 213.699 239.039C213.559 238.731 213.41 238.409 213.251 238.073C213.102 237.737 212.957 237.42 212.817 237.121C212.686 236.813 212.574 236.566 212.481 236.379L211.361 235.133L213.391 232.221L217.479 240.047C217.572 240.215 217.694 240.458 217.843 240.775C218.002 241.093 218.16 241.433 218.319 241.797C218.487 242.161 218.646 242.511 218.795 242.847C218.954 243.174 219.08 243.435 219.173 243.631L220.419 244.919L218.179 247.579L214.063 239.753ZM222.477 232.249V247.523C222.169 247.589 221.8 247.635 221.371 247.663C220.951 247.701 220.62 247.719 220.377 247.719C220.2 247.719 219.976 247.715 219.705 247.705C219.434 247.696 219.159 247.682 218.879 247.663C218.608 247.654 218.375 247.626 218.179 247.579L219.089 243.631L219.299 243.575C219.262 243.015 219.215 242.357 219.159 241.601C219.103 240.836 219.056 240.094 219.019 239.375C218.982 238.657 218.963 238.083 218.963 237.653V234.139C218.963 233.318 219.131 232.767 219.467 232.487C219.812 232.207 220.349 232.067 221.077 232.067H222.323L222.477 232.249Z" fill="white"/>
</svg>
