<svg width="520" height="520" viewBox="0 0 520 520" fill="none" xmlns="http://www.w3.org/2000/svg">
<g filter="url(#filter0_d_39_274)">
<rect x="8" y="6" width="500" height="500" rx="24" fill="#0A1F15" shape-rendering="crispEdges"/>
<rect x="177.111" y="163.248" width="162.272" height="15.6522" rx="5.11093" fill="#81BF7C"/>
<rect x="177.111" y="205.413" width="162.272" height="15.6522" rx="5.11093" fill="#81BF7C"/>
<rect x="176.472" y="123.638" width="47.5955" height="17.2494" rx="5.11093" fill="#81BF7C"/>
<rect x="252.816" y="123.638" width="86.5663" height="17.2494" rx="5.11093" fill="#81BF7C"/>
<path fill-rule="evenodd" clip-rule="evenodd" d="M354.069 99H161.611C158.788 99 156.5 101.288 156.5 104.111V246.259C156.5 249.081 158.788 251.37 161.611 251.37H247.858C250.68 251.37 252.969 253.658 252.969 256.48V261.911C252.969 264.733 250.68 267.022 247.858 267.022H232.365C229.631 267.022 227.414 269.238 227.414 271.973C227.414 274.707 229.631 276.924 232.365 276.924H282.516C285.251 276.924 287.467 274.707 287.467 271.973C287.467 269.238 285.251 267.022 282.516 267.022H269.739C266.916 267.022 264.628 264.733 264.628 261.911V256.48C264.628 253.658 266.916 251.37 269.739 251.37H354.069C356.892 251.37 359.18 249.081 359.18 246.259V104.111C359.18 101.288 356.892 99 354.069 99ZM170.715 243.224C167.892 243.224 165.604 240.936 165.604 238.113V113.215C165.604 110.392 167.892 108.104 170.715 108.104H344.965C347.788 108.104 350.076 110.392 350.076 113.215V238.113C350.076 240.936 347.788 243.224 344.965 243.224H170.715Z" fill="#0F2A1D"/>
<path d="M161.611 99H354.069M161.611 99C158.788 99 156.5 101.288 156.5 104.111M161.611 99V99C158.788 99 156.5 101.288 156.5 104.111V104.111M354.069 99C356.892 99 359.18 101.288 359.18 104.111M354.069 99V99C356.892 99 359.18 101.288 359.18 104.111V104.111M359.18 104.111V246.259M359.18 246.259C359.18 249.081 356.892 251.37 354.069 251.37M359.18 246.259V246.259C359.18 249.081 356.892 251.37 354.069 251.37V251.37M354.069 251.37H269.739M269.739 251.37C266.916 251.37 264.628 253.658 264.628 256.48M269.739 251.37V251.37C266.916 251.37 264.628 253.658 264.628 256.48V256.48M264.628 256.48V261.911M264.628 261.911C264.628 264.733 266.916 267.022 269.739 267.022M264.628 261.911V261.911C264.628 264.733 266.916 267.022 269.739 267.022V267.022M269.739 267.022H282.516M282.516 267.022C285.251 267.022 287.467 269.238 287.467 271.973M282.516 267.022V267.022C285.251 267.022 287.467 269.238 287.467 271.973V271.973M287.467 271.973C287.467 274.707 285.251 276.924 282.516 276.924M287.467 271.973V271.973C287.467 274.707 285.251 276.924 282.516 276.924V276.924M282.516 276.924H232.365M232.365 276.924C229.631 276.924 227.414 274.707 227.414 271.973M232.365 276.924V276.924C229.631 276.924 227.414 274.707 227.414 271.973V271.973M227.414 271.973C227.414 269.238 229.631 267.022 232.365 267.022M227.414 271.973V271.973C227.414 269.238 229.631 267.022 232.365 267.022V267.022M232.365 267.022H247.858M247.858 267.022C250.68 267.022 252.969 264.733 252.969 261.911M247.858 267.022V267.022C250.68 267.022 252.969 264.733 252.969 261.911V261.911M252.969 261.911V256.48M252.969 256.48C252.969 253.658 250.68 251.37 247.858 251.37M252.969 256.48V256.48C252.969 253.658 250.68 251.37 247.858 251.37V251.37M247.858 251.37H161.611M161.611 251.37C158.788 251.37 156.5 249.081 156.5 246.259M161.611 251.37V251.37C158.788 251.37 156.5 249.081 156.5 246.259V246.259M156.5 246.259V104.111M350.076 113.215V238.113C350.076 240.936 347.788 243.224 344.965 243.224H170.715C167.892 243.224 165.604 240.936 165.604 238.113V113.215C165.604 110.392 167.892 108.104 170.715 108.104H344.965C347.788 108.104 350.076 110.392 350.076 113.215Z" stroke="white" stroke-width="1.27773"/>
<path d="M67.756 388.792C67.9821 386.214 68.7962 383.658 70.1982 381.126C71.6002 378.593 73.2057 376.558 75.0147 375.02C78.9041 377.463 83.2458 379.588 88.0397 381.397C92.8788 383.161 97.6727 384.043 102.421 384.043C107.08 384.043 110.585 382.98 112.936 380.854C115.288 378.729 116.464 376.196 116.464 373.257C116.464 370.95 115.695 368.734 114.157 366.608C112.665 364.438 109.974 362.538 106.085 360.91L89.7356 354.126C84.0824 351.729 79.492 348.609 75.9645 344.764C72.4369 340.92 70.6731 335.923 70.6731 329.772C70.6731 324.481 72.0524 319.777 74.8112 315.662C77.57 311.546 81.3463 308.313 86.1402 305.961C90.9793 303.609 96.4516 302.433 102.557 302.433C108.572 302.433 114.248 303.225 119.584 304.808C124.921 306.391 129.353 308.064 132.881 309.828C132.745 312.451 132.112 315.006 130.981 317.493C129.896 319.981 128.426 322.039 126.572 323.667C123.089 321.993 119.132 320.501 114.7 319.189C110.268 317.878 106.266 317.222 102.693 317.222C98.2606 317.222 94.914 318.285 92.6527 320.411C90.4366 322.491 89.3286 324.843 89.3286 327.466C89.3286 329.817 90.12 331.807 91.7029 333.436C93.2858 335.018 95.6602 336.488 98.826 337.845L115.311 344.629C119.426 346.347 122.999 348.473 126.029 351.006C129.104 353.538 131.479 356.478 133.152 359.825C134.871 363.126 135.73 366.744 135.73 370.679C135.73 376.015 134.441 380.809 131.863 385.06C129.331 389.312 125.509 392.681 120.399 395.168C115.288 397.656 108.889 398.899 101.2 398.899C95.6376 398.899 89.8487 398.018 83.8337 396.254C77.8639 394.49 72.5047 392.003 67.756 388.792Z" fill="white"/>
<path d="M200.718 363.137C200.718 368.7 199.049 373.015 195.712 376.081C192.401 379.12 187.652 380.64 181.466 380.64C175.306 380.64 170.557 379.12 167.22 376.081C163.882 373.015 162.213 368.7 162.213 363.137V334.93L162.701 334.442H166.65C168.766 334.442 170.354 334.971 171.412 336.029C172.47 337.087 172.999 338.851 172.999 341.321V363.137C172.999 365.959 173.664 368.157 174.994 369.731C176.351 371.305 178.508 372.092 181.466 372.092C184.478 372.092 186.635 371.305 187.937 369.731C189.24 368.157 189.891 365.959 189.891 363.137V334.849C190.787 334.686 191.709 334.577 192.659 334.523C193.609 334.469 194.45 334.442 195.182 334.442C195.861 334.442 196.743 334.482 197.828 334.564C198.914 334.618 199.877 334.727 200.718 334.89V363.137ZM249.185 349.746C249.185 353.138 248.425 355.96 246.906 358.212C245.386 360.465 243.283 362.147 240.597 363.26C237.938 364.345 234.898 364.888 231.479 364.888C230.937 364.888 230.109 364.888 228.996 364.888C227.911 364.888 226.785 364.888 225.618 364.888C224.451 364.888 223.461 364.888 222.647 364.888C221.86 364.888 221.466 364.888 221.466 364.888V356.951C222.172 356.896 223.149 356.869 224.397 356.869C225.672 356.842 226.907 356.815 228.101 356.788C229.295 356.761 230.163 356.747 230.706 356.747C232.768 356.747 234.329 356.381 235.387 355.648C236.472 354.888 237.191 353.966 237.544 352.88C237.924 351.768 238.114 350.696 238.114 349.665C238.114 348.688 237.924 347.657 237.544 346.571C237.191 345.486 236.472 344.563 235.387 343.803C234.329 343.044 232.768 342.664 230.706 342.664C229.892 342.664 229.146 342.664 228.467 342.664C227.789 342.637 226.921 342.61 225.862 342.582V379.5C224.967 379.663 224.044 379.771 223.095 379.826C222.145 379.88 221.304 379.907 220.571 379.907C219.893 379.907 219.011 379.88 217.925 379.826C216.867 379.771 215.917 379.663 215.076 379.5V335.256L215.483 334.808C217.817 334.754 220.381 334.7 223.176 334.645C225.998 334.564 228.766 334.523 231.479 334.523C234.898 334.523 237.938 335.052 240.597 336.111C243.283 337.169 245.386 338.824 246.906 341.076C248.425 343.329 249.185 346.219 249.185 349.746ZM294.159 349.746C294.159 353.138 293.399 355.96 291.879 358.212C290.36 360.465 288.257 362.147 285.57 363.26C282.911 364.345 279.872 364.888 276.453 364.888C275.91 364.888 275.083 364.888 273.97 364.888C272.885 364.888 271.759 364.888 270.592 364.888C269.425 364.888 268.434 364.888 267.62 364.888C266.834 364.888 266.44 364.888 266.44 364.888V356.951C267.146 356.896 268.122 356.869 269.371 356.869C270.646 356.842 271.881 356.815 273.075 356.788C274.269 356.761 275.137 356.747 275.68 356.747C277.742 356.747 279.302 356.381 280.36 355.648C281.446 354.888 282.165 353.966 282.518 352.88C282.898 351.768 283.088 350.696 283.088 349.665C283.088 348.688 282.898 347.657 282.518 346.571C282.165 345.486 281.446 344.563 280.36 343.803C279.302 343.044 277.742 342.664 275.68 342.664C274.866 342.664 274.119 342.664 273.441 342.664C272.763 342.637 271.894 342.61 270.836 342.582V379.5C269.941 379.663 269.018 379.771 268.068 379.826C267.118 379.88 266.277 379.907 265.545 379.907C264.866 379.907 263.984 379.88 262.899 379.826C261.841 379.771 260.891 379.663 260.05 379.5V335.256L260.457 334.808C262.79 334.754 265.355 334.7 268.15 334.645C270.972 334.564 273.739 334.523 276.453 334.523C279.872 334.523 282.911 335.052 285.57 336.111C288.257 337.169 290.36 338.824 291.879 341.076C293.399 343.329 294.159 346.219 294.159 349.746ZM315.728 379.663H311.129C309.202 379.663 307.683 379.107 306.57 377.994C305.457 376.881 304.901 375.362 304.901 373.435V334.971L305.349 334.523H309.501C311.617 334.523 313.177 335.052 314.181 336.111C315.213 337.142 315.728 338.851 315.728 341.239V379.663ZM335.428 370.667C335.32 374.005 334.75 376.339 333.719 377.668C332.688 378.998 330.87 379.663 328.265 379.663H311.129L306.733 372.336C309.446 371.766 312.268 371.346 315.199 371.074C318.13 370.803 320.694 370.667 322.892 370.667H335.428ZM346.305 334.849C347.146 334.686 348.096 334.577 349.154 334.523C350.24 334.469 351.122 334.442 351.8 334.442C352.533 334.442 353.374 334.469 354.324 334.523C355.3 334.577 356.237 334.686 357.132 334.849V379.5C356.237 379.663 355.3 379.771 354.324 379.826C353.374 379.88 352.533 379.907 351.8 379.907C351.122 379.907 350.24 379.88 349.154 379.826C348.096 379.771 347.146 379.663 346.305 379.5V334.849ZM372.473 335.297L372.88 334.849H383.015V343.478C383.015 344.238 383.028 344.943 383.055 345.594C383.083 346.219 383.096 346.965 383.096 347.833V366.679C383.096 367.52 383.083 368.266 383.055 368.917C383.028 369.541 383.015 370.233 383.015 370.993V379.622H378.7C376.774 379.622 375.254 379.066 374.141 377.953C373.029 376.814 372.473 375.294 372.473 373.395V335.297ZM399.54 352.677C399.757 353.328 399.906 354.061 399.988 354.875C400.069 355.662 400.11 356.326 400.11 356.869C400.11 357.493 400.069 358.212 399.988 359.026C399.906 359.813 399.757 360.532 399.54 361.184H387.98C387.383 361.184 386.542 361.184 385.457 361.184C384.371 361.184 383.272 361.184 382.16 361.184C381.047 361.157 380.111 361.129 379.351 361.102V352.84C380.111 352.812 381.047 352.785 382.16 352.758C383.272 352.731 384.371 352.717 385.457 352.717C386.542 352.69 387.383 352.677 387.98 352.677H399.54ZM403.814 334.849C403.95 335.636 404.031 336.382 404.058 337.087C404.085 337.793 404.099 338.458 404.099 339.082C404.099 339.706 404.031 340.412 403.895 341.198C403.787 341.985 403.583 342.786 403.285 343.6H387.98C387.383 343.6 386.542 343.6 385.457 343.6C384.371 343.573 383.272 343.546 382.16 343.519C381.047 343.491 380.111 343.464 379.351 343.437V334.849H403.814ZM405.198 370.83C405.198 374.114 404.682 376.407 403.651 377.709C402.647 378.984 400.924 379.622 398.482 379.622H379.474V371.237C380.749 371.183 381.821 371.129 382.689 371.074C383.585 370.993 384.453 370.939 385.294 370.912C386.135 370.857 387.139 370.83 388.306 370.83H405.198ZM412.771 376C412.771 375.104 412.947 374.127 413.3 373.069C413.653 372.011 414.128 371.02 414.725 370.098C415.349 369.175 416.027 368.483 416.76 368.022C418.687 369.107 420.857 370.07 423.272 370.912C425.715 371.753 428.225 372.16 430.803 372.133C432.051 372.133 433.177 371.943 434.181 371.563C435.185 371.183 435.985 370.654 436.582 369.976C437.179 369.27 437.478 368.429 437.478 367.452C437.478 366.421 437.084 365.498 436.297 364.684C435.511 363.87 434.276 363.165 432.593 362.568L425.389 359.8C423.272 359.067 421.346 358.158 419.609 357.073C417.9 355.96 416.543 354.617 415.539 353.043C414.535 351.469 414.033 349.61 414.033 347.467C414.033 344.835 414.725 342.487 416.109 340.425C417.493 338.336 419.46 336.708 422.011 335.541C424.589 334.347 427.655 333.736 431.21 333.709C434.194 333.709 437.152 334.062 440.083 334.767C443.041 335.473 445.523 336.273 447.531 337.169C447.531 338.716 447.206 340.249 446.555 341.768C445.903 343.261 445.008 344.455 443.868 345.35C441.887 344.455 439.73 343.722 437.396 343.152C435.09 342.555 432.973 342.257 431.047 342.257C429.256 342.284 427.858 342.691 426.854 343.478C425.85 344.265 425.348 345.255 425.348 346.449C425.348 347.48 425.769 348.267 426.61 348.81C427.478 349.353 428.632 349.882 430.07 350.397L437.152 353.084C440.68 354.359 443.543 356.123 445.741 358.375C447.938 360.627 449.037 363.422 449.037 366.76C449.037 369.636 448.264 372.119 446.717 374.209C445.171 376.271 443.041 377.858 440.327 378.971C437.613 380.056 434.479 380.613 430.925 380.64C426.854 380.667 423.245 380.178 420.098 379.174C416.95 378.17 414.508 377.112 412.771 376Z" fill="white"/>
</g>
<defs>
<filter id="filter0_d_39_274" x="0" y="0" width="520" height="520" filterUnits="userSpaceOnUse" color-interpolation-filters="sRGB">
<feFlood flood-opacity="0" result="BackgroundImageFix"/>
<feColorMatrix in="SourceAlpha" type="matrix" values="0 0 0 0 0 0 0 0 0 0 0 0 0 0 0 0 0 0 127 0" result="hardAlpha"/>
<feOffset dx="2" dy="4"/>
<feGaussianBlur stdDeviation="5"/>
<feComposite in2="hardAlpha" operator="out"/>
<feColorMatrix type="matrix" values="0 0 0 0 0.0588235 0 0 0 0 0.164706 0 0 0 0 0.113725 0 0 0 0.113725 0"/>
<feBlend mode="normal" in2="BackgroundImageFix" result="effect1_dropShadow_39_274"/>
<feBlend mode="normal" in="SourceGraphic" in2="effect1_dropShadow_39_274" result="shape"/>
</filter>
</defs>
</svg>
